<?xml version="1.0" encoding="UTF-8" standalone="no"?>
<svg
   viewBox="0 0 60.000488 60.00005"
   width="60.000488"
   height="60.00005"
   version="1.1"
   id="svg1"
   xmlns="http://www.w3.org/2000/svg"
   xmlns:svg="http://www.w3.org/2000/svg">
  <defs
     id="defs1" />
  <path
     d="m 11.25,9.8752499 a 2,2 0 0 1 2,-2 h 6.5 a 2,2 0 0 1 2,2 V 16.37525 a 2,2 0 0 1 -2,2 h -2.5 v 4.063 c 0,0.792 0.644,1.437 1.438,1.437 h 4.062 v -2.5 a 2,2 0 0 1 2,-2 h 6.5 a 2,2 0 0 1 2,2 v 6.5 a 2,2 0 0 1 -2,2 h -6.5 a 2,2 0 0 1 -2,-2 v -2.5 h -4.063 a 2.939,2.939 0 0 1 -2.937,-2.938 v -4.062 h -2.5 a 2,2 0 0 1 -2,-2 z m 2,-0.5 a 0.5,0.5 0 0 0 -0.5,0.5 V 16.37525 a 0.5,0.5 0 0 0 0.5,0.5 h 6.5 a 0.5,0.5 0 0 0 0.5,-0.5 V 9.8752499 a 0.5,0.5 0 0 0 -0.5,-0.5 z M 24.75,20.87525 a 0.5,0.5 0 0 0 -0.5,0.5 v 6.5 a 0.5,0.5 0 0 0 0.5,0.5 h 6.5 a 0.5,0.5 0 0 0 0.5,-0.5 v -6.5 a 0.5,0.5 0 0 0 -0.5,-0.5 z"
     id="path1"
     style="fill:#ffffff;fill-opacity:1" />
  <path
     d="m 27.393457,10.025318 c 0.08316,-0.2223806 0.405823,-0.2220854 0.489285,0 l 0.580004,1.544865 a 1.7629956,1.7194665 0 0 0 1.049329,1.023421 l 1.583672,0.565684 c 0.228313,0.08111 0.228313,0.395803 0,0.477204 l -1.583672,0.565684 a 1.7629956,1.7194665 0 0 0 -1.049329,1.023421 l -0.580004,1.54457 c -0.08346,0.222676 -0.406125,0.222676 -0.489285,0 l -0.580005,-1.54457 a 1.7629956,1.7194665 0 0 0 -1.049329,-1.023421 l -1.583975,-0.565684 c -0.227707,-0.0814 -0.228009,-0.395801 0,-0.477204 l 1.583975,-0.565684 a 1.7629956,1.7194665 0 0 0 1.049329,-1.023421 z m -0.152712,1.697641 a 2.2184108,2.1636373 0 0 1 -1.319978,1.287388 l -1.085921,0.387543 1.085921,0.387839 a 2.2175036,2.1627526 0 0 1 1.319978,1.287387 l 0.397354,1.05852 0.397657,-1.05852 a 2.2165964,2.1618677 0 0 1 1.319979,-1.287387 L 30.441051,13.39789 29.355735,13.010347 A 2.2175036,2.1627526 0 0 1 28.035756,11.722959 L 27.638099,10.66385 Z"
     id="path1-9"
     style="fill:#c06eff;fill-opacity:1;stroke:#c06eff;stroke-width:0.716786;stroke-dasharray:none;stroke-opacity:1" />
  <g
     id="layer1"
     transform="translate(10.25,6.8752499)">
    <path
       d="m -3.467,32.66 c 8.403,8.401 21.644,8.987 30.734,1.78 l 1.894,1.892 -1.573,1.572 12.844,12.843 c -0.478,0.756 -0.685,1.338 -0.446,1.575 l 0.703,0.702 c 1.143,1.145 10.104,-7.819 8.961,-8.962 L 48.947,43.361 C 48.71,43.123 48.129,43.328 47.375,43.806 L 34.529,30.963 32.957,32.535 31.064,30.642 c 7.206,-9.091 6.621,-22.333 -1.779,-30.735 -9.044,-9.043 -23.708,-9.043 -32.752,0 -9.045,9.046 -9.043,23.709 0,32.753 M -0.738,2.638 c 7.536,-7.537 19.759,-7.537 27.293,0 7.537,7.535 7.537,19.758 0,27.293 -7.536,7.538 -19.755,7.536 -27.293,0 -7.534,-7.537 -7.536,-19.756 0,-27.293"
       fill="#000000"
       id="path1-3"
       style="fill:#ffffff;fill-opacity:1" />
    <path
       d="m -3.567,15.027 a 16.585,16.585 0 0 0 3.789,5.879 C 6.735,27.42 17.298,27.42 23.814,20.903 A 16.61,16.61 0 0 0 28.627,10.66 c 2.256,5.949 1,12.926 -3.79,17.716 -6.515,6.515 -17.078,6.515 -23.593,0 -3.654,-3.651 -5.255,-8.577 -4.811,-13.349"
       fill="#000000"
       id="path2"
       style="fill:#ffffff;fill-opacity:1" />
  </g>
</svg>
